# xmcd
#
# Track frame offsets: 
#        150
#        19034
#        37036
#        60634
#        80496
#        104424
#        112027
#        138923
#        167472
#        182339
#        189813
#        199433
#        246954
#        274246
#        292241
#        305463
#
# Disc length: 4452 seconds
#
# Revision: 2
# Processed by: cddbd v1.5.2PL0 Copyright (c) Steve Scherf et al.
# Submitted via: ExactAudioCopy v1.3
#
DISCID=e5116210
DTITLE=Michael Ende - Der Wunschpunsch
DYEAR=2014
DGENRE=Hörbuch
TTITLE0=Sechs Uhr dreißig
TTITLE1=Sechs Uhr fünfunddreißig
TTITLE2=Sechs Uhr vierzig
TTITLE3=Sechs Uhr fünfundvierzig
TTITLE4=Sechs Uhr fünfzig
TTITLE5=Sieben Uhr
TTITLE6=Sieben Uhr fünf
TTITLE7=Sieben Uhr zehn
TTITLE8=Sieben Uhr fünfzehn
TTITLE9=Sieben Uhr zwanzig
TTITLE10=Sieben Uhr dreiundzwanzig
TTITLE11=Sieben Uhr fünfundzwanzig
TTITLE12=Sieben Uhr dreißig
TTITLE13=Sieben Uhr vierunddreißig
TTITLE14=Sieben Uhr vierzig
TTITLE15=Sieben Uhr fünfundvierzig
EXTD=
EXTT0=
EXTT1=
EXTT2=
EXTT3=
EXTT4=
EXTT5=
EXTT6=
EXTT7=
EXTT8=
EXTT9=
EXTT10=
EXTT11=
EXTT12=
EXTT13=
EXTT14=
EXTT15=
PLAYORDER=
